<svg width="22" height="22" viewBox="0 0 22 22" fill="none" xmlns="http://www.w3.org/2000/svg">
<path d="M16.6741 10.2143C16.2818 10.0179 15.8895 9.82143 15.4971 9.82143C15.1048 9.82143 14.7125 10.0179 14.3202 10.2143C14.124 10.6071 13.9278 11 13.9278 11.3929H17.2626C17.0665 10.8036 16.8703 10.4107 16.6741 10.2143ZM16.6741 10.2143C16.2818 10.0179 15.8895 9.82143 15.4971 9.82143C15.1048 9.82143 14.7125 10.0179 14.3202 10.2143C14.124 10.6071 13.9278 11 13.9278 11.3929H17.2626C17.0665 10.8036 16.8703 10.4107 16.6741 10.2143ZM18.4396 0H3.531C1.56933 0 0 1.57143 0 3.53571V18.4643C0 20.4286 1.56933 22 3.531 22H18.4396C20.4013 22 21.9706 20.4286 21.9706 18.4643V3.53571C21.9706 1.57143 20.4013 0 18.4396 0ZM13.5355 6.28571H17.655V7.26786H13.5355V6.28571ZM10.593 14.5357C10.3968 14.9286 10.2007 15.125 10.0045 15.3214C9.61215 15.7143 9.21982 15.9107 8.82749 15.9107C8.43516 16.1071 7.84666 16.1071 7.45432 16.1071H2.74633V5.89286H7.65049C9.02366 5.89286 9.80832 6.28571 10.3968 6.875C10.593 7.46429 10.7892 7.85714 10.7892 8.44643C10.7892 9.03572 10.593 9.625 10.3968 10.0179C10.2007 10.2143 9.80832 10.4107 9.61215 10.6071C10.2007 10.8036 10.593 11 10.7892 11.5893C10.9853 11.9821 11.1815 12.5714 11.1815 13.1607C11.1815 13.5536 10.9853 14.1429 10.593 14.5357ZM19.0281 12.5714H13.7317C13.7317 13.3571 13.9278 13.75 14.5163 14.1429C14.9086 14.3393 15.301 14.5357 15.6933 14.5357C16.0856 14.5357 16.478 14.3393 16.6741 14.1429C16.8703 13.9464 17.0665 13.75 17.0665 13.5536H19.0281C19.0281 13.9464 18.832 14.3393 18.2435 14.9286C17.655 15.7143 16.6741 15.9107 15.4971 15.9107C14.5163 15.9107 13.7317 15.7143 12.947 15.125C12.3585 14.5357 11.9662 13.5536 11.9662 12.1786C11.9662 11 12.3585 10.0179 12.947 9.23214C13.5355 8.64286 14.5163 8.25 15.4971 8.25C16.0856 8.25 16.6741 8.44643 17.2626 8.64286C17.655 8.83929 18.2435 9.23214 18.4396 9.625C18.832 10.0179 19.0281 10.6071 19.0281 11.1964C19.0281 11.5893 19.2243 11.9821 19.0281 12.5714ZM15.4971 9.82143C15.1048 9.82143 14.7125 10.0179 14.3202 10.2143C14.124 10.6071 13.9278 11 13.9278 11.3929H17.2626C17.2626 10.8036 17.0665 10.4107 16.6741 10.2143C16.2818 10.0179 15.8895 9.82143 15.4971 9.82143Z" fill="white" fill-opacity="0.6"/>
</svg>
