<svg width="1440" height="953" viewBox="0 0 1440 953" fill="none" xmlns="http://www.w3.org/2000/svg">
<path fill-rule="evenodd" clip-rule="evenodd" d="M1.69551e-05 3.01277C-0.00615546 1.14715 1.67388 -0.271599 3.51212 0.0468759L720.976 124.348C721.315 124.406 721.661 124.406 722 124.348L1439.48 0.0448286C1441.31 -0.272959 1442.99 1.13923 1442.99 3.00083V605.852C1442.99 606.145 1442.78 606.396 1442.49 606.445C1442.2 606.495 1441.99 606.746 1441.99 607.039V949.436C1441.99 951.093 1440.65 952.436 1438.99 952.436H4.98822C3.33137 952.436 1.98818 951.093 1.98818 949.436V603.936L1.69551e-05 3.01277Z" transform="translate(-0.988281 0.563477)" fill="#78BEFF"/>
</svg>
