<svg width="22" height="22" viewBox="0 0 22 22" fill="none" xmlns="http://www.w3.org/2000/svg">
<path d="M10.9853 22C4.92445 22 0 17.0261 0 10.9043C0 4.97391 4.92445 0 10.9853 0C17.0462 0 21.9706 4.97391 21.9706 10.9043C21.7812 17.0261 16.8568 22 10.9853 22ZM20.0766 12.4348C19.6978 12.2435 17.2356 11.4783 14.2052 12.0522C15.3416 15.4957 15.9098 18.1739 16.0992 18.7478C18.1826 17.4087 19.6978 15.113 20.0766 12.4348ZM14.584 19.7043C14.3946 18.9391 13.8264 16.0696 12.6899 12.6261C7.38668 14.5391 5.49266 18.1739 5.30326 18.5565C6.81847 19.7043 8.9019 20.4696 10.9853 20.4696C12.1217 20.4696 13.4475 20.087 14.584 19.7043ZM3.97744 17.2174C4.16685 16.8348 6.81847 12.6261 11.5535 11.0957C11.7429 11.0957 11.7429 11.0957 11.9323 10.9043C11.7429 10.5217 11.3641 9.94783 11.1747 9.37391C6.43967 10.713 2.08342 10.713 1.51522 10.713C1.51522 10.713 1.51522 10.9043 1.51522 11.0957C1.51522 13.3913 2.46223 15.687 3.97744 17.2174ZM1.70462 8.9913C2.08342 8.9913 5.87146 8.9913 10.2277 7.84348C8.9019 5.16522 7.19728 2.86957 7.00788 2.48696C4.35625 3.82609 2.46223 6.12174 1.70462 8.9913ZM8.71249 1.91304C8.9019 2.29565 10.6065 4.5913 12.1217 7.46087C15.531 6.12174 16.8568 4.2087 17.0462 4.01739C15.3416 2.48696 13.2581 1.53043 10.9853 1.53043C10.2277 1.53043 9.4701 1.72174 8.71249 1.91304ZM18.1826 5.16522C17.9932 5.35652 16.2886 7.26957 12.8793 8.8C13.0687 9.18261 13.2581 9.75652 13.4475 10.1391C13.4475 10.3304 13.6369 10.5217 13.6369 10.713C16.6674 10.3304 19.8872 10.9043 20.0766 11.0957C20.266 8.8 19.319 6.69565 18.1826 5.16522Z" fill="white" fill-opacity="0.6"/>
</svg>
