<svg width="35" height="34" viewBox="0 0 35 34" fill="none" xmlns="http://www.w3.org/2000/svg">
<path d="M14.9554 0L14.9807 30.0092L5.76972 21.3834L3.78444 19.4172L0.55836 16.4679C-0.18612 15.7306 -0.18612 14.7475 0.55836 14.2559L3.78444 11.0608L5.2734 9.58619L6.08453 8.75055L14.9554 0Z" transform="translate(12.2266 1.76099)" fill="#111111"/>
<path d="M5.70768 32.4424H1.48896C0.74448 32.4424 0.24816 31.9508 0.24816 31.2135L0 1.22888C0 0.491551 0.49632 0 1.2408 0H5.45952C6.204 0 6.70032 0.491551 6.70032 1.22888V30.9677C6.94848 31.705 6.45216 32.4424 5.70768 32.4424Z" transform="translate(0.873047 0.778809)" fill="#111111"/>
<path d="M6.94847 1.22888V30.9677C6.94847 31.705 6.45216 32.1966 5.70768 32.1966H2.97792C1.98528 32.1966 0.99264 31.705 9.46655e-07 30.9677V1.22888V0.983102C0.74448 0.491551 1.48896 0 2.23344 0H5.45952C6.204 0 6.94847 0.491551 6.94847 1.22888Z" transform="translate(27.1787 0.778809)" fill="#111111"/>
<path d="M6.26603 6.24267C6.26603 8.45465 6.26604 10.6666 6.01788 12.8786L3.78444 10.6666L0.55836 7.71732C-0.18612 6.97999 -0.18612 5.99689 0.55836 5.50534L3.78444 2.31026L5.2734 0.835608L6.08453 0C6.33269 2.21198 6.26603 4.03069 6.26603 6.24267Z" transform="translate(12.2266 10.5115)" fill="#74B4E0"/>
</svg>
