<svg width="1113" height="687" viewBox="0 0 1113 687" fill="none" xmlns="http://www.w3.org/2000/svg">
<g filter="url(#filter0_d)">
<rect width="281" height="122" rx="6" transform="translate(105 336) scale(1.5)" fill="white"/>
</g>
<path d="M4.29785 19H1.61719V6.15039H8.98242V8.38281H4.29785V11.6963H8.65723V13.9199H4.29785V19ZM11.1709 6.63379C11.1709 5.76074 11.6572 5.32422 12.6299 5.32422C13.6025 5.32422 14.0889 5.76074 14.0889 6.63379C14.0889 7.0498 13.9658 7.375 13.7197 7.60938C13.4795 7.83789 13.1162 7.95215 12.6299 7.95215C11.6572 7.95215 11.1709 7.5127 11.1709 6.63379ZM13.9658 19H11.2852V9.17383H13.9658V19ZM22.2188 11.1865H19.8984V19H17.2178V11.1865H15.7412V9.89453L17.2178 9.17383V8.45312C17.2178 7.33398 17.4932 6.5166 18.0439 6.00098C18.5947 5.48535 19.4766 5.22754 20.6895 5.22754C21.6152 5.22754 22.4385 5.36523 23.1592 5.64062L22.4736 7.60938C21.9346 7.43945 21.4365 7.35449 20.9795 7.35449C20.5986 7.35449 20.3232 7.46875 20.1533 7.69727C19.9834 7.91992 19.8984 8.20703 19.8984 8.55859V9.17383H22.2188V11.1865ZM30.0059 19L29.4873 17.6641H29.417C28.9658 18.2324 28.5 18.6279 28.0195 18.8506C27.5449 19.0674 26.9238 19.1758 26.1562 19.1758C25.2129 19.1758 24.4688 18.9062 23.9238 18.3672C23.3848 17.8281 23.1152 17.0605 23.1152 16.0645C23.1152 15.0215 23.4785 14.2539 24.2051 13.7617C24.9375 13.2637 26.0391 12.9883 27.5098 12.9355L29.2148 12.8828V12.4521C29.2148 11.4561 28.7051 10.958 27.6855 10.958C26.9004 10.958 25.9775 11.1953 24.917 11.6699L24.0293 9.85938C25.1602 9.26758 26.4141 8.97168 27.791 8.97168C29.1094 8.97168 30.1201 9.25879 30.8232 9.83301C31.5264 10.4072 31.8779 11.2803 31.8779 12.4521V19H30.0059ZM29.2148 14.4473L28.1777 14.4824C27.3984 14.5059 26.8184 14.6465 26.4375 14.9043C26.0566 15.1621 25.8662 15.5547 25.8662 16.082C25.8662 16.8379 26.2998 17.2158 27.167 17.2158C27.7881 17.2158 28.2832 17.0371 28.6523 16.6797C29.0273 16.3223 29.2148 15.8477 29.2148 15.2559V14.4473ZM45.5625 19L45.0439 17.6641H44.9736C44.5225 18.2324 44.0566 18.6279 43.5762 18.8506C43.1016 19.0674 42.4805 19.1758 41.7129 19.1758C40.7695 19.1758 40.0254 18.9062 39.4805 18.3672C38.9414 17.8281 38.6719 17.0605 38.6719 16.0645C38.6719 15.0215 39.0352 14.2539 39.7617 13.7617C40.4941 13.2637 41.5957 12.9883 43.0664 12.9355L44.7715 12.8828V12.4521C44.7715 11.4561 44.2617 10.958 43.2422 10.958C42.457 10.958 41.5342 11.1953 40.4736 11.6699L39.5859 9.85938C40.7168 9.26758 41.9707 8.97168 43.3477 8.97168C44.666 8.97168 45.6768 9.25879 46.3799 9.83301C47.083 10.4072 47.4346 11.2803 47.4346 12.4521V19H45.5625ZM44.7715 14.4473L43.7344 14.4824C42.9551 14.5059 42.375 14.6465 41.9941 14.9043C41.6133 15.1621 41.4229 15.5547 41.4229 16.082C41.4229 16.8379 41.8564 17.2158 42.7236 17.2158C43.3447 17.2158 43.8398 17.0371 44.209 16.6797C44.584 16.3223 44.7715 15.8477 44.7715 15.2559V14.4473ZM53.3145 19.1758C52.1602 19.1758 51.252 18.7275 50.5898 17.8311C49.9336 16.9346 49.6055 15.6924 49.6055 14.1045C49.6055 12.4932 49.9395 11.2393 50.6074 10.3428C51.2812 9.44043 52.207 8.98926 53.3848 8.98926C54.6211 8.98926 55.5645 9.46973 56.2148 10.4307H56.3027C56.168 9.69824 56.1006 9.04492 56.1006 8.4707V5.32422H58.79V19H56.7334L56.2148 17.7256H56.1006C55.4912 18.6924 54.5625 19.1758 53.3145 19.1758ZM54.2549 17.04C54.9404 17.04 55.4414 16.8408 55.7578 16.4424C56.0801 16.0439 56.2559 15.3672 56.2852 14.4121V14.1221C56.2852 13.0674 56.1211 12.3115 55.793 11.8545C55.4707 11.3975 54.9434 11.1689 54.2109 11.1689C53.6133 11.1689 53.1475 11.4238 52.8135 11.9336C52.4854 12.4375 52.3213 13.1729 52.3213 14.1396C52.3213 15.1064 52.4883 15.833 52.8223 16.3193C53.1562 16.7998 53.6338 17.04 54.2549 17.04ZM64.7051 19.1758C63.5508 19.1758 62.6426 18.7275 61.9805 17.8311C61.3242 16.9346 60.9961 15.6924 60.9961 14.1045C60.9961 12.4932 61.3301 11.2393 61.998 10.3428C62.6719 9.44043 63.5977 8.98926 64.7754 8.98926C66.0117 8.98926 66.9551 9.46973 67.6055 10.4307H67.6934C67.5586 9.69824 67.4912 9.04492 67.4912 8.4707V5.32422H70.1807V19H68.124L67.6055 17.7256H67.4912C66.8818 18.6924 65.9531 19.1758 64.7051 19.1758ZM65.6455 17.04C66.3311 17.04 66.832 16.8408 67.1484 16.4424C67.4707 16.0439 67.6465 15.3672 67.6758 14.4121V14.1221C67.6758 13.0674 67.5117 12.3115 67.1836 11.8545C66.8613 11.3975 66.334 11.1689 65.6016 11.1689C65.0039 11.1689 64.5381 11.4238 64.2041 11.9336C63.876 12.4375 63.7119 13.1729 63.7119 14.1396C63.7119 15.1064 63.8789 15.833 64.2129 16.3193C64.5469 16.7998 65.0244 17.04 65.6455 17.04ZM72.8701 6.63379C72.8701 5.76074 73.3564 5.32422 74.3291 5.32422C75.3018 5.32422 75.7881 5.76074 75.7881 6.63379C75.7881 7.0498 75.665 7.375 75.4189 7.60938C75.1787 7.83789 74.8154 7.95215 74.3291 7.95215C73.3564 7.95215 72.8701 7.5127 72.8701 6.63379ZM75.665 19H72.9844V9.17383H75.665V19ZM82.4766 19.1758C79.418 19.1758 77.8887 17.4971 77.8887 14.1396C77.8887 12.4697 78.3047 11.1953 79.1367 10.3164C79.9688 9.43164 81.1611 8.98926 82.7139 8.98926C83.8506 8.98926 84.8701 9.21191 85.7725 9.65723L84.9814 11.7314C84.5596 11.5615 84.167 11.4238 83.8037 11.3184C83.4404 11.207 83.0771 11.1514 82.7139 11.1514C81.3193 11.1514 80.6221 12.1416 80.6221 14.1221C80.6221 16.0439 81.3193 17.0049 82.7139 17.0049C83.2295 17.0049 83.707 16.9375 84.1465 16.8027C84.5859 16.6621 85.0254 16.4453 85.4648 16.1523V18.4463C85.0312 18.7217 84.5918 18.9121 84.1465 19.0176C83.707 19.123 83.1504 19.1758 82.4766 19.1758ZM91.8896 17.04C92.3584 17.04 92.9209 16.9375 93.5771 16.7324V18.7275C92.9092 19.0264 92.0889 19.1758 91.1162 19.1758C90.0439 19.1758 89.2617 18.9062 88.7695 18.3672C88.2832 17.8223 88.04 17.0078 88.04 15.9238V11.1865H86.7568V10.0527L88.2334 9.15625L89.0068 7.08203H90.7207V9.17383H93.4717V11.1865H90.7207V15.9238C90.7207 16.3047 90.8262 16.5859 91.0371 16.7676C91.2539 16.9492 91.5381 17.04 91.8896 17.04Z" transform="translate(316.5 406.5) scale(1.5)" fill="black"/>
<path fill-rule="evenodd" clip-rule="evenodd" d="M50.9972 0H14.0027H13.511C12.2125 0 10.9685 0.233398 9.81868 0.660645C4.12897 2.50977 0 8.03027 0 14.5532C0 22.5913 6.26921 29.1069 14.0027 29.1069C19.4317 29.1069 24.1391 25.896 26.4625 21.2012H38.5374C40.8608 25.896 45.5682 29.1069 50.9972 29.1069C58.7307 29.1069 64.9999 22.5913 64.9999 14.5532C64.9999 8.89062 61.888 3.98291 57.3446 1.57764C55.7267 0.577148 53.8197 0 51.7778 0H50.9972Z" transform="translate(162 412.34) scale(1.5)" fill="#78BEFF"/>
<rect width="2.06157" height="10.4245" rx="1.03078" transform="translate(179.341 424.144) scale(1.5)" fill="white"/>
<rect width="2.08491" height="10.3078" rx="1.04245" transform="translate(188.619 430.399) scale(1.5) rotate(90)" fill="white"/>
<ellipse cx="1.37438" cy="1.38994" rx="1.37438" ry="1.38994" transform="translate(237.064 423.623) scale(1.5)" fill="white"/>
<ellipse cx="1.37438" cy="1.38994" rx="1.37438" ry="1.38994" transform="translate(237.064 436.132) scale(1.5)" fill="white"/>
<ellipse cx="1.38994" cy="1.37438" rx="1.38994" ry="1.37438" transform="translate(247.374 429.877) scale(1.5) rotate(90)" fill="white"/>
<ellipse cx="1.38994" cy="1.37438" rx="1.38994" ry="1.37438" transform="translate(235.002 429.877) scale(1.5) rotate(90)" fill="white"/>
<path d="M1.73177 30.2516C-0.693603 26.4361 -3.84386 12.7 17.5583 15.5346C31.1393 17.3333 37.2838 6.7044 31.4629 0" transform="translate(208.5 378) scale(1.5)" stroke="#78BEFF" stroke-width="1.5" stroke-linecap="round" stroke-linejoin="round" stroke-dasharray="2.57 3.86"/>
<g filter="url(#filter1_d)">
<rect width="281" height="122" rx="6" transform="translate(586.5 387) scale(1.5)" fill="white"/>
</g>
<path d="M4.29785 19H1.61719V6.15039H8.98242V8.38281H4.29785V11.6963H8.65723V13.9199H4.29785V19ZM13.4209 14.0693C13.4209 15.042 13.5791 15.7773 13.8955 16.2754C14.2178 16.7734 14.7393 17.0225 15.46 17.0225C16.1748 17.0225 16.6875 16.7764 16.998 16.2842C17.3145 15.7861 17.4727 15.0479 17.4727 14.0693C17.4727 13.0967 17.3145 12.3672 16.998 11.8809C16.6816 11.3945 16.1631 11.1514 15.4424 11.1514C14.7275 11.1514 14.2119 11.3945 13.8955 11.8809C13.5791 12.3613 13.4209 13.0908 13.4209 14.0693ZM20.2148 14.0693C20.2148 15.6689 19.793 16.9199 18.9492 17.8223C18.1055 18.7246 16.9307 19.1758 15.4248 19.1758C14.4814 19.1758 13.6494 18.9707 12.9287 18.5605C12.208 18.1445 11.6543 17.5498 11.2676 16.7764C10.8809 16.0029 10.6875 15.1006 10.6875 14.0693C10.6875 12.4639 11.1064 11.2158 11.9443 10.3252C12.7822 9.43457 13.96 8.98926 15.4775 8.98926C16.4209 8.98926 17.2529 9.19434 17.9736 9.60449C18.6943 10.0146 19.248 10.6035 19.6348 11.3711C20.0215 12.1387 20.2148 13.0381 20.2148 14.0693ZM24.5654 14.0693C24.5654 15.042 24.7236 15.7773 25.04 16.2754C25.3623 16.7734 25.8838 17.0225 26.6045 17.0225C27.3193 17.0225 27.832 16.7764 28.1426 16.2842C28.459 15.7861 28.6172 15.0479 28.6172 14.0693C28.6172 13.0967 28.459 12.3672 28.1426 11.8809C27.8262 11.3945 27.3076 11.1514 26.5869 11.1514C25.8721 11.1514 25.3564 11.3945 25.04 11.8809C24.7236 12.3613 24.5654 13.0908 24.5654 14.0693ZM31.3594 14.0693C31.3594 15.6689 30.9375 16.9199 30.0938 17.8223C29.25 18.7246 28.0752 19.1758 26.5693 19.1758C25.626 19.1758 24.7939 18.9707 24.0732 18.5605C23.3525 18.1445 22.7988 17.5498 22.4121 16.7764C22.0254 16.0029 21.832 15.1006 21.832 14.0693C21.832 12.4639 22.251 11.2158 23.0889 10.3252C23.9268 9.43457 25.1045 8.98926 26.6221 8.98926C27.5654 8.98926 28.3975 9.19434 29.1182 9.60449C29.8389 10.0146 30.3926 10.6035 30.7793 11.3711C31.166 12.1387 31.3594 13.0381 31.3594 14.0693ZM36.6855 19.1758C35.5312 19.1758 34.623 18.7275 33.9609 17.8311C33.3047 16.9346 32.9766 15.6924 32.9766 14.1045C32.9766 12.4932 33.3105 11.2393 33.9785 10.3428C34.6523 9.44043 35.5781 8.98926 36.7559 8.98926C37.9922 8.98926 38.9355 9.46973 39.5859 10.4307H39.6738C39.5391 9.69824 39.4717 9.04492 39.4717 8.4707V5.32422H42.1611V19H40.1045L39.5859 17.7256H39.4717C38.8623 18.6924 37.9336 19.1758 36.6855 19.1758ZM37.626 17.04C38.3115 17.04 38.8125 16.8408 39.1289 16.4424C39.4512 16.0439 39.627 15.3672 39.6562 14.4121V14.1221C39.6562 13.0674 39.4922 12.3115 39.1641 11.8545C38.8418 11.3975 38.3145 11.1689 37.582 11.1689C36.9844 11.1689 36.5186 11.4238 36.1846 11.9336C35.8564 12.4375 35.6924 13.1729 35.6924 14.1396C35.6924 15.1064 35.8594 15.833 36.1934 16.3193C36.5273 16.7998 37.0049 17.04 37.626 17.04ZM44.8506 6.63379C44.8506 5.76074 45.3369 5.32422 46.3096 5.32422C47.2822 5.32422 47.7686 5.76074 47.7686 6.63379C47.7686 7.0498 47.6455 7.375 47.3994 7.60938C47.1592 7.83789 46.7959 7.95215 46.3096 7.95215C45.3369 7.95215 44.8506 7.5127 44.8506 6.63379ZM47.6455 19H44.9648V9.17383H47.6455V19ZM54.5361 10.8965C53.9678 10.8965 53.5225 11.0781 53.2002 11.4414C52.8779 11.7988 52.6934 12.3086 52.6465 12.9707H56.4082C56.3965 12.3086 56.2236 11.7988 55.8896 11.4414C55.5557 11.0781 55.1045 10.8965 54.5361 10.8965ZM54.9141 19.1758C53.332 19.1758 52.0957 18.7393 51.2051 17.8662C50.3145 16.9932 49.8691 15.7568 49.8691 14.1572C49.8691 12.5107 50.2793 11.2393 51.0996 10.3428C51.9258 9.44043 53.0654 8.98926 54.5186 8.98926C55.9072 8.98926 56.9883 9.38477 57.7617 10.1758C58.5352 10.9668 58.9219 12.0596 58.9219 13.4541V14.7549H52.585C52.6143 15.5166 52.8398 16.1113 53.2617 16.5391C53.6836 16.9668 54.2754 17.1807 55.0371 17.1807C55.6289 17.1807 56.1885 17.1191 56.7158 16.9961C57.2432 16.873 57.7939 16.6768 58.3682 16.4072V18.4814C57.8994 18.7158 57.3984 18.8887 56.8652 19C56.332 19.1172 55.6816 19.1758 54.9141 19.1758Z" transform="translate(822 457.5) scale(1.5)" fill="black"/>
<path d="M26.9061 0.072422C1.72859 4.82761 -0.914015 17.0066 0.209706 23.5853C0.833674 27.2401 3.85498 31.1133 12.0168 34.0853C24.4978 37.3875 35.7053 15.9232 35.7053 8.32797C35.7053 4.69566 30.9276 -0.687081 26.9061 0.072422Z" transform="translate(660 462.858) scale(1.5)" fill="#78BEFF"/>
<path d="M0 15.6923L8.50997 10.3426C7.72035 7.70078 7.22402 2.02097 11.5556 0.435905C16.9702 -1.54543 20.0158 3.73812 19.0006 6.04967C21.3695 5.05894 27.7986 6.37982 26.7834 11.9936C25.7682 17.6074 21.3689 18.2678 16.6317 16.6167C10.6758 21.6361 9.03464 26.9006 8.80904 27.2308" transform="translate(696.164 442.5) scale(1.5)" stroke="#78BEFF" stroke-width="1.5" stroke-linecap="round" stroke-linejoin="round" stroke-dasharray="2.57 3.86"/>
<ellipse cx="1.09896" cy="1.08599" rx="1.09896" ry="1.08599" transform="translate(667.213 486.808) scale(1.5)" fill="white"/>
<ellipse cx="1.09896" cy="1.08599" rx="1.09896" ry="1.08599" transform="translate(673.395 490.88) scale(1.5)" fill="white"/>
<ellipse cx="1.09896" cy="1.08599" rx="1.09896" ry="1.08599" transform="translate(668.862 497.396) scale(1.5)" fill="white"/>
<g filter="url(#filter2_d)">
<rect width="281" height="122" rx="6" transform="translate(586.5 144) scale(1.5)" fill="white"/>
</g>
<path d="M13.1709 12.4521C13.1709 14.5674 12.5674 16.1875 11.3604 17.3125C10.1592 18.4375 8.42188 19 6.14844 19H2.50977V6.15039H6.54395C8.6416 6.15039 10.2705 6.7041 11.4307 7.81152C12.5908 8.91895 13.1709 10.4658 13.1709 12.4521ZM10.3408 12.5225C10.3408 9.7627 9.12207 8.38281 6.68457 8.38281H5.23438V16.75H6.40332C9.02832 16.75 10.3408 15.3408 10.3408 12.5225ZM21.8633 19L21.3447 17.6641H21.2744C20.8232 18.2324 20.3574 18.6279 19.877 18.8506C19.4023 19.0674 18.7812 19.1758 18.0137 19.1758C17.0703 19.1758 16.3262 18.9062 15.7812 18.3672C15.2422 17.8281 14.9727 17.0605 14.9727 16.0645C14.9727 15.0215 15.3359 14.2539 16.0625 13.7617C16.7949 13.2637 17.8965 12.9883 19.3672 12.9355L21.0723 12.8828V12.4521C21.0723 11.4561 20.5625 10.958 19.543 10.958C18.7578 10.958 17.835 11.1953 16.7744 11.6699L15.8867 9.85938C17.0176 9.26758 18.2715 8.97168 19.6484 8.97168C20.9668 8.97168 21.9775 9.25879 22.6807 9.83301C23.3838 10.4072 23.7354 11.2803 23.7354 12.4521V19H21.8633ZM21.0723 14.4473L20.0352 14.4824C19.2559 14.5059 18.6758 14.6465 18.2949 14.9043C17.9141 15.1621 17.7236 15.5547 17.7236 16.082C17.7236 16.8379 18.1572 17.2158 19.0244 17.2158C19.6455 17.2158 20.1406 17.0371 20.5098 16.6797C20.8848 16.3223 21.0723 15.8477 21.0723 15.2559V14.4473ZM35.5742 19H32.8936V13.2607C32.8936 12.5518 32.7676 12.0215 32.5156 11.6699C32.2637 11.3125 31.8623 11.1338 31.3115 11.1338C30.5615 11.1338 30.0195 11.3857 29.6855 11.8896C29.3516 12.3877 29.1846 13.2168 29.1846 14.377V19H26.5039V9.17383H28.5518L28.9121 10.4307H29.0615C29.3604 9.95605 29.7705 9.59863 30.292 9.3584C30.8193 9.1123 31.417 8.98926 32.085 8.98926C33.2275 8.98926 34.0947 9.2998 34.6865 9.9209C35.2783 10.5361 35.5742 11.4268 35.5742 12.5928V19ZM42.3242 19.1758C39.2656 19.1758 37.7363 17.4971 37.7363 14.1396C37.7363 12.4697 38.1523 11.1953 38.9844 10.3164C39.8164 9.43164 41.0088 8.98926 42.5615 8.98926C43.6982 8.98926 44.7178 9.21191 45.6201 9.65723L44.8291 11.7314C44.4072 11.5615 44.0146 11.4238 43.6514 11.3184C43.2881 11.207 42.9248 11.1514 42.5615 11.1514C41.167 11.1514 40.4697 12.1416 40.4697 14.1221C40.4697 16.0439 41.167 17.0049 42.5615 17.0049C43.0771 17.0049 43.5547 16.9375 43.9941 16.8027C44.4336 16.6621 44.873 16.4453 45.3125 16.1523V18.4463C44.8789 18.7217 44.4395 18.9121 43.9941 19.0176C43.5547 19.123 42.998 19.1758 42.3242 19.1758ZM51.667 10.8965C51.0986 10.8965 50.6533 11.0781 50.3311 11.4414C50.0088 11.7988 49.8242 12.3086 49.7773 12.9707H53.5391C53.5273 12.3086 53.3545 11.7988 53.0205 11.4414C52.6865 11.0781 52.2354 10.8965 51.667 10.8965ZM52.0449 19.1758C50.4629 19.1758 49.2266 18.7393 48.3359 17.8662C47.4453 16.9932 47 15.7568 47 14.1572C47 12.5107 47.4102 11.2393 48.2305 10.3428C49.0566 9.44043 50.1963 8.98926 51.6494 8.98926C53.0381 8.98926 54.1191 9.38477 54.8926 10.1758C55.666 10.9668 56.0527 12.0596 56.0527 13.4541V14.7549H49.7158C49.7451 15.5166 49.9707 16.1113 50.3926 16.5391C50.8145 16.9668 51.4062 17.1807 52.168 17.1807C52.7598 17.1807 53.3193 17.1191 53.8467 16.9961C54.374 16.873 54.9248 16.6768 55.499 16.4072V18.4814C55.0303 18.7158 54.5293 18.8887 53.9961 19C53.4629 19.1172 52.8125 19.1758 52.0449 19.1758ZM63.7168 8.98926C64.0801 8.98926 64.3818 9.01562 64.6221 9.06836L64.4199 11.582C64.2031 11.5234 63.9395 11.4941 63.6289 11.4941C62.7734 11.4941 62.1055 11.7139 61.625 12.1533C61.1504 12.5928 60.9131 13.208 60.9131 13.999V19H58.2324V9.17383H60.2627L60.6582 10.8262H60.79C61.0947 10.2754 61.5049 9.83301 62.0205 9.49902C62.542 9.15918 63.1074 8.98926 63.7168 8.98926Z" transform="translate(843 214.5) scale(1.5)" fill="black"/>
<g filter="url(#filter3_d)">
<rect width="281" height="122" rx="6" transform="translate(105 93) scale(1.5)" fill="white"/>
</g>
<path d="M7.05762 19L3.96387 8.91895H3.88477C3.99609 10.9697 4.05176 12.3379 4.05176 13.0234V19H1.61719V6.15039H5.32617L8.36719 15.9766H8.41992L11.6455 6.15039H15.3545V19H12.8145V12.918C12.8145 12.6309 12.8174 12.2998 12.8232 11.9248C12.835 11.5498 12.876 10.5537 12.9463 8.93652H12.8672L9.55371 19H7.05762ZM25.3477 19L24.9873 17.7432H24.8467C24.5596 18.2002 24.1523 18.5547 23.625 18.8066C23.0977 19.0527 22.4971 19.1758 21.8232 19.1758C20.6689 19.1758 19.7988 18.8682 19.2129 18.2529C18.627 17.6318 18.334 16.7412 18.334 15.5811V9.17383H21.0146V14.9131C21.0146 15.6221 21.1406 16.1553 21.3926 16.5127C21.6445 16.8643 22.0459 17.04 22.5967 17.04C23.3467 17.04 23.8887 16.791 24.2227 16.293C24.5566 15.7891 24.7236 14.957 24.7236 13.7969V9.17383H27.4043V19H25.3477ZM37.0723 16.082C37.0723 17.0898 36.7207 17.8574 36.0176 18.3848C35.3203 18.9121 34.2744 19.1758 32.8799 19.1758C32.165 19.1758 31.5557 19.126 31.0518 19.0264C30.5479 18.9326 30.0762 18.792 29.6367 18.6045V16.3896C30.1348 16.624 30.6943 16.8203 31.3154 16.9785C31.9424 17.1367 32.4932 17.2158 32.9678 17.2158C33.9404 17.2158 34.4268 16.9346 34.4268 16.3721C34.4268 16.1611 34.3623 15.9912 34.2334 15.8623C34.1045 15.7275 33.8818 15.5781 33.5654 15.4141C33.249 15.2441 32.8271 15.0479 32.2998 14.8252C31.5439 14.5088 30.9873 14.2158 30.6299 13.9463C30.2783 13.6768 30.0205 13.3691 29.8564 13.0234C29.6982 12.6719 29.6191 12.2412 29.6191 11.7314C29.6191 10.8584 29.9561 10.1846 30.6299 9.70996C31.3096 9.22949 32.2705 8.98926 33.5127 8.98926C34.6963 8.98926 35.8477 9.24707 36.9668 9.7627L36.1582 11.6963C35.666 11.4854 35.2061 11.3125 34.7783 11.1777C34.3506 11.043 33.9141 10.9756 33.4688 10.9756C32.6777 10.9756 32.2822 11.1895 32.2822 11.6172C32.2822 11.8574 32.4082 12.0654 32.6602 12.2412C32.918 12.417 33.4775 12.6777 34.3389 13.0234C35.1064 13.334 35.6689 13.624 36.0264 13.8936C36.3838 14.1631 36.6475 14.4736 36.8174 14.8252C36.9873 15.1768 37.0723 15.5957 37.0723 16.082ZM39.0498 6.63379C39.0498 5.76074 39.5361 5.32422 40.5088 5.32422C41.4814 5.32422 41.9678 5.76074 41.9678 6.63379C41.9678 7.0498 41.8447 7.375 41.5986 7.60938C41.3584 7.83789 40.9951 7.95215 40.5088 7.95215C39.5361 7.95215 39.0498 7.5127 39.0498 6.63379ZM41.8447 19H39.1641V9.17383H41.8447V19ZM48.6562 19.1758C45.5977 19.1758 44.0684 17.4971 44.0684 14.1396C44.0684 12.4697 44.4844 11.1953 45.3164 10.3164C46.1484 9.43164 47.3408 8.98926 48.8936 8.98926C50.0303 8.98926 51.0498 9.21191 51.9521 9.65723L51.1611 11.7314C50.7393 11.5615 50.3467 11.4238 49.9834 11.3184C49.6201 11.207 49.2568 11.1514 48.8936 11.1514C47.499 11.1514 46.8018 12.1416 46.8018 14.1221C46.8018 16.0439 47.499 17.0049 48.8936 17.0049C49.4092 17.0049 49.8867 16.9375 50.3262 16.8027C50.7656 16.6621 51.2051 16.4453 51.6445 16.1523V18.4463C51.2109 18.7217 50.7715 18.9121 50.3262 19.0176C49.8867 19.123 49.3301 19.1758 48.6562 19.1758ZM58.8164 19V6.15039H61.541V16.75H66.7529V19H58.8164ZM70.9189 14.0693C70.9189 15.042 71.0771 15.7773 71.3936 16.2754C71.7158 16.7734 72.2373 17.0225 72.958 17.0225C73.6729 17.0225 74.1855 16.7764 74.4961 16.2842C74.8125 15.7861 74.9707 15.0479 74.9707 14.0693C74.9707 13.0967 74.8125 12.3672 74.4961 11.8809C74.1797 11.3945 73.6611 11.1514 72.9404 11.1514C72.2256 11.1514 71.71 11.3945 71.3936 11.8809C71.0771 12.3613 70.9189 13.0908 70.9189 14.0693ZM77.7129 14.0693C77.7129 15.6689 77.291 16.9199 76.4473 17.8223C75.6035 18.7246 74.4287 19.1758 72.9229 19.1758C71.9795 19.1758 71.1475 18.9707 70.4268 18.5605C69.7061 18.1445 69.1523 17.5498 68.7656 16.7764C68.3789 16.0029 68.1855 15.1006 68.1855 14.0693C68.1855 12.4639 68.6045 11.2158 69.4424 10.3252C70.2803 9.43457 71.458 8.98926 72.9756 8.98926C73.9189 8.98926 74.751 9.19434 75.4717 9.60449C76.1924 10.0146 76.7461 10.6035 77.1328 11.3711C77.5195 12.1387 77.7129 13.0381 77.7129 14.0693ZM82.0898 19L78.3457 9.17383H81.1494L83.0479 14.7725C83.2412 15.3818 83.3672 16.0527 83.4258 16.7852H83.4961C83.5312 16.123 83.6631 15.4521 83.8916 14.7725L85.7812 9.17383H88.585L84.8408 19H82.0898ZM94.0693 10.8965C93.501 10.8965 93.0557 11.0781 92.7334 11.4414C92.4111 11.7988 92.2266 12.3086 92.1797 12.9707H95.9414C95.9297 12.3086 95.7568 11.7988 95.4229 11.4414C95.0889 11.0781 94.6377 10.8965 94.0693 10.8965ZM94.4473 19.1758C92.8652 19.1758 91.6289 18.7393 90.7383 17.8662C89.8477 16.9932 89.4023 15.7568 89.4023 14.1572C89.4023 12.5107 89.8125 11.2393 90.6328 10.3428C91.459 9.44043 92.5986 8.98926 94.0518 8.98926C95.4404 8.98926 96.5215 9.38477 97.2949 10.1758C98.0684 10.9668 98.4551 12.0596 98.4551 13.4541V14.7549H92.1182C92.1475 15.5166 92.373 16.1113 92.7949 16.5391C93.2168 16.9668 93.8086 17.1807 94.5703 17.1807C95.1621 17.1807 95.7217 17.1191 96.249 16.9961C96.7764 16.873 97.3271 16.6768 97.9014 16.4072V18.4814C97.4326 18.7158 96.9316 18.8887 96.3984 19C95.8652 19.1172 95.2148 19.1758 94.4473 19.1758ZM106.119 8.98926C106.482 8.98926 106.784 9.01562 107.024 9.06836L106.822 11.582C106.605 11.5234 106.342 11.4941 106.031 11.4941C105.176 11.4941 104.508 11.7139 104.027 12.1533C103.553 12.5928 103.315 13.208 103.315 13.999V19H100.635V9.17383H102.665L103.061 10.8262H103.192C103.497 10.2754 103.907 9.83301 104.423 9.49902C104.944 9.15918 105.51 8.98926 106.119 8.98926Z" transform="translate(315 163.5) scale(1.5)" fill="black"/>
<path d="M0 6.85703C0 3.07 3.07 0 6.85703 0H9.78724C10.2606 0 10.6444 0.38375 10.6444 0.857129V21.1429C10.6444 21.6163 10.2606 22 9.78724 22H6.85703C3.07 22 0 18.93 0 15.143V6.85703Z" transform="translate(168.744 179.765) scale(1.5)" fill="#78BEFF"/>
<path d="M0 6.85703C0 3.07 3.07 0 6.85703 0H9.78725C10.2606 0 10.6444 0.38375 10.6444 0.857129V21.1429C10.6444 21.6162 10.2606 22 9.78725 22H6.85703C3.07 22 0 18.93 0 15.143V6.85703Z" transform="translate(248.578 212.765) scale(1.5) rotate(-180)" fill="#78BEFF"/>
<path fill-rule="evenodd" clip-rule="evenodd" d="M39.76 28.4707C40.1994 26.7207 40.4347 24.874 40.4347 22.96C40.4347 11.3076 31.7131 2.14307 21.2887 2.14307C10.8644 2.14307 2.14282 11.3076 2.14282 22.96C2.14282 24.874 2.37809 26.7207 2.81754 28.4707H0.617126C0.213898 26.7056 0 24.8594 0 22.96C0 10.2798 9.5313 0 21.2887 0C33.0462 0 42.5775 10.2798 42.5775 22.96C42.5775 24.8594 42.3636 26.7056 41.9604 28.4707H39.76Z" transform="translate(177.047 150) scale(1.5)" fill="#78BEFF"/>
<rect width="1.7031" height="21.2414" rx="0.85155" transform="translate(185.988 180.334) scale(1.5)" fill="#78BEFF"/>
<rect width="1.7031" height="21.2414" rx="0.85155" transform="translate(228.779 180.334) scale(1.5)" fill="#78BEFF"/>
<path d="M1.59998 0C-0.315177 3.45098 -0.740948 9.05882 1.59998 12.7255" transform="translate(160.277 186.882) scale(1.5)" stroke="#78BEFF" stroke-width="1.5" stroke-linecap="round" stroke-linejoin="round" stroke-dasharray="2.57 3.86"/>
<path d="M3.4062 0C-0.670979 7.01894 -1.5774 18.4247 3.4062 25.8824" transform="translate(151.5 177.177) scale(1.5)" stroke="#78BEFF" stroke-width="1.5" stroke-linecap="round" stroke-linejoin="round" stroke-dasharray="2.57 3.86"/>
<path d="M1.59998 0C-0.315177 3.45098 -0.740948 9.05882 1.59998 12.7255" transform="translate(256.723 206.294) scale(1.5) rotate(-180)" stroke="#78BEFF" stroke-width="1.5" stroke-linecap="round" stroke-linejoin="round" stroke-dasharray="2.57 3.86"/>
<path d="M3.4062 0C-0.670979 7.01894 -1.5774 18.4247 3.4062 25.8824" transform="translate(265.5 216) scale(1.5) rotate(-180)" stroke="#78BEFF" stroke-width="1.5" stroke-linecap="round" stroke-linejoin="round" stroke-dasharray="2.57 3.86"/>
<path d="M2.48927 0L26.7633 24.0757C27.0555 24.3622 27.452 24.5259 27.8695 24.5362L44.4939 24.7613V26.6849C44.4939 27.5444 43.7843 28.2401 42.9077 28.2401H26.0849C25.6675 28.2401 25.2709 28.0764 24.9787 27.8002L0.475139 4.28718C-0.140581 3.69373 -0.161454 2.72169 0.433394 2.10778L2.48927 0Z" transform="translate(686.259 220.807) scale(1.5)" fill="#78BEFF"/>
<path d="M36.5049 27.3076C34.0838 27.2564 31.2556 27.195 30.7964 27.1439C29.9616 27.0416 29.9198 24.7189 28.417 21.5982C28.0831 20.9126 25.9542 17.3622 23.8148 13.9345C11.6569 11.4276 11.4482 5.33964 11.5004 4.31644C11.5526 3.29325 11.0308 2.06542 10.5612 1.14454C10.0915 0.22367 8.15047 -0.492565 6.68943 0.428309C5.2284 1.34918 0 6.97675 0 6.97675L23.7209 30.5C24.0131 30.7967 24.4201 30.9399 24.8375 30.9399H40.147C40.1575 28.9959 38.5295 27.3485 36.5049 27.3076ZM21.9259 18.5184C21.4876 18.5184 21.1223 18.1705 21.1223 17.7305C21.1223 17.3008 21.4772 16.9426 21.9259 16.9426C22.3642 16.9426 22.7295 17.2905 22.7295 17.7305C22.7295 18.1705 22.3642 18.5184 21.9259 18.5184ZM24.1174 20.6671C23.6791 20.6671 23.3139 20.3192 23.3139 19.8792C23.3139 19.4495 23.6687 19.0914 24.1174 19.0914C24.5558 19.0914 24.921 19.4392 24.921 19.8792C24.921 20.3192 24.5558 20.6671 24.1174 20.6671Z" transform="translate(692.215 208.5) scale(1.5)" fill="#78BEFF"/>
<path d="M48.9844 11.7647C48.8174 7.80492 45.5405 4.65349 41.5018 4.57163C39.0494 4.52047 36.8265 4.48978 36.4926 4.52047C35.6577 4.60233 34.1236 3.40519 30.805 2.23875C30.0745 1.98295 26.0045 0.959759 22.0179 0.0184208C11.6133 6.67941 7.07368 2.51501 6.37447 1.75785C5.67526 1.00069 4.87169 0.253755 3.32718 0.0184208C2.28358 -0.135058 0.530345 0.673266 0.165087 2.34107C-0.20017 4.00888 0.154651 11.6112 0.154651 11.6112L48.9844 12V11.7647ZM25.6914 5.0423C25.3783 5.34926 24.8774 5.34926 24.5643 5.0423C24.2512 4.73534 24.2512 4.24421 24.5643 3.93725C24.8774 3.63029 25.3783 3.63029 25.6914 3.93725C26.0045 4.23398 26.0045 4.73534 25.6914 5.0423ZM28.7909 5.0423C28.4778 5.34926 27.9769 5.34926 27.6638 5.0423C27.3507 4.73534 27.3507 4.24421 27.6638 3.93725C27.9769 3.63029 28.4778 3.63029 28.7909 3.93725C29.1039 4.23398 29.1039 4.73534 28.7909 5.0423Z" transform="translate(649.5 238.725) scale(1.5)" fill="#78BEFF"/>
<path d="M47.7235 3.11051H1.25231C0.56354 3.11051 0 2.55798 0 1.88268V0H48.9863V1.87244C48.9863 2.55798 48.4227 3.11051 47.7235 3.11051Z" transform="translate(649.512 259.334) scale(1.5)" fill="#78BEFF"/>
<line x1="0.75" y1="-0.75" x2="23.25" y2="-0.75" transform="translate(736.5 217.5) scale(1.5 -1.5)" stroke="#78BEFF" stroke-width="1.5" stroke-linecap="round" stroke-linejoin="round" stroke-dasharray="2.57 3.86"/>
<line x1="0.75" y1="-0.75" x2="13.65" y2="-0.75" transform="translate(736.5 226.5) scale(1.5 -1.5)" stroke="#78BEFF" stroke-width="1.5" stroke-linecap="round" stroke-linejoin="round" stroke-dasharray="2.57 3.86"/>
<defs>
<filter id="filter0_d" x="0" y="243" width="631.5" height="393" filterUnits="userSpaceOnUse" color-interpolation-filters="sRGB">
<feFlood flood-opacity="0" result="BackgroundImageFix"/>
<feColorMatrix in="SourceAlpha" type="matrix" values="0 0 0 0 0 0 0 0 0 0 0 0 0 0 0 0 0 0 255 0"/>
<feOffset dy="8"/>
<feGaussianBlur stdDeviation="35"/>
<feColorMatrix type="matrix" values="0 0 0 0 0 0 0 0 0 0 0 0 0 0 0 0 0 0 0.04 0"/>
<feBlend mode="normal" in2="BackgroundImageFix" result="effect1_dropShadow"/>
<feBlend mode="normal" in="SourceGraphic" in2="effect1_dropShadow" result="shape"/>
</filter>
<filter id="filter1_d" x="481.5" y="294" width="631.5" height="393" filterUnits="userSpaceOnUse" color-interpolation-filters="sRGB">
<feFlood flood-opacity="0" result="BackgroundImageFix"/>
<feColorMatrix in="SourceAlpha" type="matrix" values="0 0 0 0 0 0 0 0 0 0 0 0 0 0 0 0 0 0 255 0"/>
<feOffset dy="8"/>
<feGaussianBlur stdDeviation="35"/>
<feColorMatrix type="matrix" values="0 0 0 0 0 0 0 0 0 0 0 0 0 0 0 0 0 0 0.04 0"/>
<feBlend mode="normal" in2="BackgroundImageFix" result="effect1_dropShadow"/>
<feBlend mode="normal" in="SourceGraphic" in2="effect1_dropShadow" result="shape"/>
</filter>
<filter id="filter2_d" x="481.5" y="51" width="631.5" height="393" filterUnits="userSpaceOnUse" color-interpolation-filters="sRGB">
<feFlood flood-opacity="0" result="BackgroundImageFix"/>
<feColorMatrix in="SourceAlpha" type="matrix" values="0 0 0 0 0 0 0 0 0 0 0 0 0 0 0 0 0 0 255 0"/>
<feOffset dy="8"/>
<feGaussianBlur stdDeviation="35"/>
<feColorMatrix type="matrix" values="0 0 0 0 0 0 0 0 0 0 0 0 0 0 0 0 0 0 0.04 0"/>
<feBlend mode="normal" in2="BackgroundImageFix" result="effect1_dropShadow"/>
<feBlend mode="normal" in="SourceGraphic" in2="effect1_dropShadow" result="shape"/>
</filter>
<filter id="filter3_d" x="0" y="0" width="631.5" height="393" filterUnits="userSpaceOnUse" color-interpolation-filters="sRGB">
<feFlood flood-opacity="0" result="BackgroundImageFix"/>
<feColorMatrix in="SourceAlpha" type="matrix" values="0 0 0 0 0 0 0 0 0 0 0 0 0 0 0 0 0 0 255 0"/>
<feOffset dy="8"/>
<feGaussianBlur stdDeviation="35"/>
<feColorMatrix type="matrix" values="0 0 0 0 0 0 0 0 0 0 0 0 0 0 0 0 0 0 0.04 0"/>
<feBlend mode="normal" in2="BackgroundImageFix" result="effect1_dropShadow"/>
<feBlend mode="normal" in="SourceGraphic" in2="effect1_dropShadow" result="shape"/>
</filter>
</defs>
</svg>
