<svg width="22" height="22" viewBox="0 0 22 22" fill="none" xmlns="http://www.w3.org/2000/svg">
<path d="M16.8123 0H4.96728C2.10154 0 0 2.10435 0 4.97391V17.0261C0 19.7043 2.10154 22 4.96728 22H17.0034C19.6781 22 21.9706 19.8957 21.9706 17.0261V4.97391C21.7796 2.10435 19.487 0 16.8123 0ZM8.40616 16.4522H6.11357V8.9913H8.40616V16.4522ZM7.25986 8.03478C6.49567 8.03478 5.92252 7.46087 5.92252 6.69565C5.92252 5.93043 6.49567 5.35652 7.25986 5.35652C8.02406 5.35652 8.59721 5.93043 8.59721 6.69565C8.40616 7.46087 7.83301 8.03478 7.25986 8.03478ZM16.8123 16.4522H14.5197V12.8174C14.5197 12.0522 14.5197 10.9043 13.3734 10.9043C12.2271 10.9043 12.0361 11.8609 12.0361 12.8174V16.4522H9.7435V8.9913H11.845V9.94783C12.2271 9.56522 12.9913 8.8 14.1376 8.8C16.4302 8.8 16.8123 10.3304 16.8123 12.2435V16.4522Z" fill="#78BEFF"/>
</svg>
