<svg width="1440" height="850" viewBox="0 0 1440 850" fill="none" xmlns="http://www.w3.org/2000/svg">
<path fill-rule="evenodd" clip-rule="evenodd" d="M431.487 768.586L620.591 61.1219C625.278 43.5812 610.592 27.1034 592.781 22.3194L515.599 1.588C497.789 -3.19598 476.853 3.71368 455.915 10.6231L455.898 10.6884L187.485 157.852L163.423 176.455L118.424 201.968L20.926 257.246C-0.0116141 264.155 -6.26158 287.543 6.85993 309.867L65.2884 400.76L100.282 460.292L265.274 723.846L265.251 723.935C265.373 724.089 265.496 724.242 265.619 724.396L265.799 724.684L265.812 724.637C284.714 748.207 305.164 765.989 328.68 772.305L393.988 789.847C411.799 794.631 426.799 786.127 431.487 768.586Z" transform="matrix(0.96582 -0.258791 0.25743 0.966186 920.859 84.7893)" fill="url(#paint0_linear)" fill-opacity="0.5"/>
<path fill-rule="evenodd" clip-rule="evenodd" d="M274.614 489.153L394.965 38.8997C397.948 27.7363 388.603 17.2497 377.266 14.2046L328.146 1.01058C316.811 -2.03402 303.487 2.36336 290.16 6.76046L290.149 6.80173L119.322 100.462L104.008 112.301L75.3695 128.538L13.3188 163.719C-0.00567333 168.116 -3.98503 183 4.36617 197.208L41.5525 255.056L63.8224 292.944L168.83 460.681L168.816 460.735C168.89 460.829 168.964 460.922 169.039 461.015L169.162 461.211L169.171 461.179C181.201 476.181 194.217 487.499 209.184 491.519L250.747 502.683C262.084 505.729 271.629 500.316 274.614 489.153Z" transform="matrix(-0.965926 0.258819 -0.257458 -0.96629 383.682 726.547)" fill="url(#paint1_linear)" fill-opacity="0.5"/>
<defs>
<linearGradient id="paint0_linear" x2="1" gradientUnits="userSpaceOnUse" gradientTransform="matrix(342.611 -555.106 120.539 74.5013 119.326 577.215)">
<stop stop-color="#78BEFF" stop-opacity="0.2"/>
<stop offset="1" stop-color="#78BEFF" stop-opacity="0.01"/>
</linearGradient>
<linearGradient id="paint1_linear" x2="1" gradientUnits="userSpaceOnUse" gradientTransform="matrix(172.121 -274.456 59.5979 37.4263 84.5017 372.352)">
<stop stop-color="#78BEFF" stop-opacity="0.2"/>
<stop offset="1" stop-color="#78BEFF" stop-opacity="0"/>
</linearGradient>
</defs>
</svg>
